<svg width="62" height="62" viewBox="0 0 62 62" fill="none" xmlns="http://www.w3.org/2000/svg">
<rect width="62" height="62" rx="8" fill="#15171B"/>
<mask id="mask0_85_11487" style="mask-type:luminance" maskUnits="userSpaceOnUse" x="2" y="2" width="57" height="57">
<path fill-rule="evenodd" clip-rule="evenodd" d="M2.58337 2.58411H58.107V58.1098H2.58337V2.58411Z" fill="white"/>
</mask>
<g mask="url(#mask0_85_11487)">
<path fill-rule="evenodd" clip-rule="evenodd" d="M15.78 50.8279C17.2784 50.8279 18.6915 51.3962 20.1872 51.9981C29.3503 56.2348 40.1874 54.3076 47.2476 47.2499C56.5631 37.9293 56.5631 22.7677 47.2476 13.4522C42.7371 8.94169 36.7386 6.45911 30.3526 6.45911C23.964 6.45911 17.963 8.94427 13.455 13.4548C6.39221 20.5124 4.47021 31.3495 8.66813 40.4248C9.27263 41.9205 9.85646 43.3775 9.85646 44.8914C9.85646 46.4026 9.33721 47.9242 8.87996 49.2675C8.5028 50.3732 7.93188 52.042 8.29871 52.4089C8.6578 52.7809 10.337 52.1944 11.4452 51.8147C12.7756 51.36 14.2843 50.8382 15.78 50.8279V50.8279ZM30.288 58.1103C26.3407 58.1103 22.3675 57.2759 18.6501 55.5554C17.5548 55.1162 16.5292 54.7029 15.793 54.7029C14.9456 54.708 13.8064 55.1007 12.7059 55.4804C10.448 56.2554 7.63738 57.2216 5.5578 55.1498C3.48596 53.0754 4.4418 50.2724 5.21163 48.0172C5.59138 46.9064 5.98146 45.7594 5.98146 44.8914C5.98146 44.1784 5.63788 43.269 5.11088 41.9593C0.272298 31.5097 2.50946 18.9159 10.7167 10.7139C15.9557 5.47227 22.9281 2.58411 30.35 2.58411C37.772 2.58411 44.747 5.46969 49.986 10.7113C60.8153 21.5406 60.8153 39.1589 49.986 49.9883C44.6772 55.2996 37.5291 58.1103 30.288 58.1103V58.1103Z" fill="#F7F5FF"/>
</g>
<path fill-rule="evenodd" clip-rule="evenodd" d="M40.5489 34.0044C39.1229 34.0044 37.9552 32.8497 37.9552 31.4211C37.9552 29.9925 39.0996 28.8378 40.5256 28.8378H40.5489C41.9749 28.8378 43.1322 29.9925 43.1322 31.4211C43.1322 32.8497 41.9749 34.0044 40.5489 34.0044" fill="#F7F5FF"/>
<path fill-rule="evenodd" clip-rule="evenodd" d="M30.1928 34.0044C28.7668 34.0044 27.5991 32.8497 27.5991 31.4211C27.5991 29.9925 28.741 28.8378 30.1695 28.8378H30.1928C31.6188 28.8378 32.7761 29.9925 32.7761 31.4211C32.7761 32.8497 31.6188 34.0044 30.1928 34.0044" fill="#F7F5FF"/>
<path fill-rule="evenodd" clip-rule="evenodd" d="M19.8356 34.0044C18.4096 34.0044 17.2419 32.8497 17.2419 31.4211C17.2419 29.9925 18.3864 28.8378 19.8124 28.8378H19.8356C21.2616 28.8378 22.4189 29.9925 22.4189 31.4211C22.4189 32.8497 21.2616 34.0044 19.8356 34.0044" fill="#F7F5FF"/>
</svg>
