<svg width="24" height="24" viewBox="0 0 24 24" fill="none" xmlns="http://www.w3.org/2000/svg">
<path fill-rule="evenodd" clip-rule="evenodd" d="M11.7499 4.5C11.6589 4.5 11.4349 4.525 11.3159 4.763L9.48992 8.414C9.20092 8.991 8.64392 9.392 7.99992 9.484L3.91192 10.073C3.64192 10.112 3.54992 10.312 3.52192 10.396C3.49692 10.477 3.45692 10.683 3.64292 10.861L6.59892 13.701C7.06992 14.154 7.28392 14.807 7.17192 15.446L6.47592 19.456C6.43292 19.707 6.58992 19.853 6.65992 19.903C6.73392 19.959 6.93192 20.07 7.17692 19.942L10.8319 18.047C11.4079 17.75 12.0939 17.75 12.6679 18.047L16.3219 19.941C16.5679 20.068 16.7659 19.957 16.8409 19.903C16.9109 19.853 17.0679 19.707 17.0249 19.456L16.3269 15.446C16.2149 14.807 16.4289 14.154 16.8999 13.701L19.8559 10.861C20.0429 10.683 20.0029 10.476 19.9769 10.396C19.9499 10.312 19.8579 10.112 19.5879 10.073L15.4999 9.484C14.8569 9.392 14.2999 8.991 14.0109 8.413L12.1829 4.763C12.0649 4.525 11.8409 4.5 11.7499 4.5ZM6.94692 21.5C6.53392 21.5 6.12392 21.37 5.77292 21.114C5.16692 20.67 4.86992 19.937 4.99892 19.199L5.69492 15.189C5.72092 15.04 5.66992 14.889 5.55992 14.783L2.60392 11.943C2.05992 11.422 1.86492 10.652 2.09492 9.937C2.32692 9.214 2.94092 8.697 3.69792 8.589L7.78592 8C7.94392 7.978 8.07992 7.881 8.14792 7.743L9.97492 4.091C10.3119 3.418 10.9919 3 11.7499 3C12.5079 3 13.1879 3.418 13.5249 4.091L15.3529 7.742C15.4219 7.881 15.5569 7.978 15.7139 8L19.8019 8.589C20.5589 8.697 21.1729 9.214 21.4049 9.937C21.6349 10.652 21.4389 11.422 20.8949 11.943L17.9389 14.783C17.8289 14.889 17.7789 15.04 17.8049 15.188L18.5019 19.199C18.6299 19.938 18.3329 20.671 17.7259 21.114C17.1109 21.565 16.3099 21.626 15.6309 21.272L11.9779 19.379C11.8349 19.305 11.6639 19.305 11.5209 19.379L7.86792 21.273C7.57592 21.425 7.26092 21.5 6.94692 21.5Z" fill="#FFE45A"/>
<path d="M14.0472 13.1502C14.0472 13.5458 13.0344 15.3117 12.7587 14.8431C12.6768 14.7038 12.5491 14.6017 12.4672 14.4575C11.9211 13.4965 11.8789 12.214 11.8605 11.1375C11.8418 10.0411 12.124 8.92303 12.6459 7.95389C12.7797 7.70539 12.6776 7.33117 12.6929 7.05571C12.7032 6.86973 12.8501 7.55947 12.8575 7.66234C12.908 8.36932 13.0373 9.2054 13.5581 9.74556C13.7452 9.9395 14.0815 10.3022 14.0472 10.6108C13.9985 11.0492 10.8929 10.7276 10.5203 10.5967C9.94362 10.3941 9.65246 9.90936 9.05311 9.78318C8.4711 9.66066 8.10321 10.0879 7.61883 10.3099C7.38319 10.4179 6.71271 10.3959 6.59838 10.6532C6.4164 11.0626 6.91911 11.5911 7.08744 11.9652C7.32651 12.4964 7.54435 14.2501 7.44014 13.6769C7.31606 12.9945 6.77598 12.4112 6.36325 11.8805C6.31709 11.8212 6.01217 11.382 5.96824 11.382C5.94622 11.382 6.08159 11.5484 6.0905 11.5607C6.33897 11.9039 6.64482 12.1995 6.89934 12.5389C7.34163 13.1286 8.15293 13.7694 8.35713 14.5045C8.49888 15.0148 8.58146 15.7836 8.35713 16.2821C8.27949 16.4546 8.29721 16.5395 8.16903 16.6677C8.15266 16.6841 8.04676 16.8708 8.04676 16.7288C8.04676 16.177 8.33935 15.522 8.50761 15.0124C8.74913 14.281 9.03645 13.5645 9.26942 12.8304C9.44243 12.2853 9.53346 11.6991 9.83373 11.2034C10.2174 10.5698 11.2368 10.4363 11.8464 10.8554C12.7821 11.4987 13.1481 12.655 13.624 13.6205C13.8633 14.106 14.1264 14.3993 14.6585 14.5704C14.9366 14.6597 15.2096 14.3637 15.4392 14.26C15.7011 14.1417 15.9157 14.075 16.121 13.8697C16.3584 13.6323 16.8775 13.0364 16.6712 12.727" stroke="#FFE45A" stroke-width="3" stroke-linecap="round"/>
<path d="M10.9152 8.57934C10.9152 7.45092 11.4125 6.64741 11.6958 5.63555C12.0056 4.52917 11.0302 8.06488 10.0499 8.66399C9.60961 8.93304 9.02836 9.01084 8.55448 9.21889C8.44562 9.26668 8.31883 9.40975 8.20649 9.4258C7.25846 9.56123 6.48401 10.3562 5.51663 10.5074C5.14556 10.5654 4.77784 10.4808 4.41624 10.592C4.33308 10.6176 4.18034 10.6031 4.36921 10.6108C5.15105 10.6428 5.86253 10.9287 6.49946 11.3727C7.72939 12.2299 8.94417 13.0937 9.04824 14.7068C9.12401 15.8811 8.44408 17.1937 7.82088 18.1631C7.75749 18.2617 7.53623 18.6194 7.52932 18.7368C7.51392 18.9988 7.3743 19.1071 7.52932 18.8215C8.09407 17.7812 10.1809 17.3825 11.1785 17.3825C12.6654 17.3825 14.2916 17.2884 15.4437 18.4406C15.5902 18.5871 15.782 18.7047 15.9093 18.8638C16.2005 19.2279 15.6486 17.5785 15.613 17.4624C15.2059 16.1355 14.7725 14.3233 15.4437 12.9809C15.8169 12.2346 16.78 12.0021 17.4987 11.7112C17.9361 11.5342 18.3254 11.297 18.7684 11.1375C18.9135 11.0853 18.7026 11.1212 18.6461 11.1187C18.2241 11.1004 17.8182 10.923 17.4047 10.846C15.8037 10.5479 14.0867 10.3634 12.6786 11.3021C11.9985 11.7555 10.8797 12.379 10.6706 13.2678C10.6274 13.4516 10.5782 14.3362 10.7082 14.4105C11.5207 14.8748 12.6666 10.3177 12.3541 9.84903" stroke="#FFE45A" stroke-width="3" stroke-linecap="round"/>
</svg>
