<svg width="42" height="16" viewBox="0 0 42 16" fill="none" xmlns="http://www.w3.org/2000/svg">
<path fill-rule="evenodd" clip-rule="evenodd" d="M29.621 0C28.9636 0 28.3657 0.304637 28.0867 0.648966V4.90694L25.4152 8.53778V0.283799H22.8635L18.6381 7.40159V0.283799H17.1829L13.3554 1.23641V2.2307L15.4496 2.45397V11.1932H18.1602L22.2061 4.42071V11.1932H25.1762L29.2826 5.80001C30.9173 3.71121 31.4948 2.85982 31.4948 1.84469C31.4948 0.83155 30.6979 0 29.621 0ZM38.631 9.28736C36.7378 9.28736 35.502 7.66495 35.502 5.25266C35.502 2.83938 36.4383 1.48091 38.2526 1.17628L38.233 4.09663C38.8505 4.46179 39.3489 4.62354 39.9468 4.62354C41.1231 4.62354 41.9005 3.87336 41.9005 2.79869C41.9005 1.13559 40.2258 0.000396921 37.7736 0.000396921C34.0867 0.000396921 31.575 2.33231 31.575 5.79942C31.575 7.3613 32.093 8.76045 33.1288 9.81428C34.1462 10.8493 35.382 11.3355 37.1562 11.3355C38.791 11.3355 39.9663 11.0517 42 10.0981V8.15118C40.3253 8.98273 39.5079 9.28736 38.631 9.28736ZM5.3032 9.81398C5.58216 9.83482 5.72066 9.83482 5.90111 9.83482C8.07428 9.83482 9.24962 8.45552 9.24962 5.80011C9.24962 3.56941 8.29277 2.3717 6.53804 2.3717C6.25631 2.3717 5.97458 2.40884 5.42378 2.48144C5.39106 2.48575 5.35738 2.49019 5.3227 2.49475L5.3032 9.81398ZM5.3032 1.48062C7.27641 0.283898 7.95333 0.0814681 8.95018 0.0814681C11.2833 0.0814681 12.9971 2.27148 12.9971 5.29305C12.9971 8.80084 10.7049 11.1536 7.07645 11.1536C6.67849 11.1536 5.98012 11.1337 5.28271 11.0524L5.3032 14.58L7.05695 14.9859V16H0.180447V14.9859L1.75473 14.58V2.3717H0V1.31788L4.20686 0.0199453H5.3032V1.48062Z" fill="white"/>
</svg>
